<svg xmlns = "http://www.w3.org/2000/svg" width = "1000" height = "1000">
<g>
<polygon points = "28.926, 1000.000 55.471, 1000.000 50.873, 993.490 "
fill = "none" stroke = "black"/>
</g>
<g>
<polygon points = "998.350, 916.337 931.430, 897.498 838.115, 947.249 903.551, 1000.000 924.457, 1000.000 997.806, 975.177 1000.000, 965.881 1000.000, 931.508 "
fill = "none" stroke = "black"/>
</g>
<g>
<polygon points = "999.544, 1.192 1000.000, 0.547 1000.000, 0.000 992.604, 0.000 "
fill = "none" stroke = "black"/>
</g>
<g>
<polygon points = "0.488, 788.669 3.704, 903.443 14.882, 908.189 99.746, 874.621 35.135, 774.313 "
fill = "none" stroke = "black"/>
</g>
<g>
<polygon points = ""
fill = "none" stroke = "black"/>
</g>
<g>
<polygon points = ""
fill = "none" stroke = "black"/>
</g>
<g>
<polygon points = ""
fill = "none" stroke = "black"/>
</g>
<g>
<polygon points = ""
fill = "none" stroke = "black"/>
</g>
<g>
<polygon points = "998.350, 916.337 1000.000, 931.508 1000.000, 911.827 "
fill = "none" stroke = "black"/>
</g>
<g>
<polygon points = "999.544, 1.192 999.454, 1.610 1000.000, 3.162 1000.000, 0.547 "
fill = "none" stroke = "black"/>
</g>
<g>
<polygon points = "266.580, 994.622 172.191, 953.943 148.727, 986.805 164.213, 1000.000 234.697, 1000.000 "
fill = "none" stroke = "black"/>
</g>
<g>
<polygon points = ""
fill = "none" stroke = "black"/>
</g>
<g>
<polygon points = "250.476, 36.037 154.798, 73.113 116.323, 373.936 118.547, 387.067 371.033, 660.652 402.042, 664.014 463.069, 200.680 "
fill = "none" stroke = "black"/>
</g>
<g>
<polygon points = "2.567, 0.000 0.351, 0.000 0.000, 0.350 0.000, 3.368 "
fill = "none" stroke = "black"/>
</g>
<g>
<polygon points = "6.656, 485.269 118.547, 387.067 116.323, 373.936 0.000, 216.603 0.000, 482.369 "
fill = "none" stroke = "black"/>
</g>
<g>
<polygon points = "838.115, 947.249 820.927, 943.598 771.483, 1000.000 903.551, 1000.000 "
fill = "none" stroke = "black"/>
</g>
<g>
<polygon points = "997.566, 565.426 989.622, 558.598 987.243, 560.047 931.430, 897.498 998.350, 916.337 1000.000, 911.827 1000.000, 570.587 "
fill = "none" stroke = "black"/>
</g>
<g>
<polygon points = "283.479, 1.413 286.347, 0.000 273.072, 0.000 "
fill = "none" stroke = "black"/>
</g>
<g>
<polygon points = ""
fill = "none" stroke = "black"/>
</g>
<g>
<polygon points = ""
fill = "none" stroke = "black"/>
</g>
<g>
<polygon points = "999.454, 1.610 995.526, 9.474 1000.000, 11.255 1000.000, 3.162 "
fill = "none" stroke = "black"/>
</g>
<g>
<polygon points = "3.547, 18.988 19.454, 0.577 17.392, 0.000 2.567, 0.000 0.000, 3.368 0.000, 12.455 "
fill = "none" stroke = "black"/>
</g>
<g>
<polygon points = "19.454, 0.577 21.381, 0.046 21.381, 0.000 17.392, 0.000 "
fill = "none" stroke = "black"/>
</g>
<g>
<polygon points = "123.085, 992.413 61.054, 984.269 50.873, 993.490 55.471, 1000.000 114.364, 1000.000 "
fill = "none" stroke = "black"/>
</g>
<g>
<polygon points = "3.547, 18.988 0.000, 12.455 0.000, 30.833 "
fill = "none" stroke = "black"/>
</g>
<g>
<polygon points = "0.232, 907.951 3.704, 903.443 0.488, 788.669 0.000, 787.960 0.000, 901.106 "
fill = "none" stroke = "black"/>
</g>
<g>
<polygon points = "628.012, 724.675 738.700, 136.237 463.069, 200.680 402.042, 664.014 "
fill = "none" stroke = "black"/>
</g>
<g>
<polygon points = "0.232, 907.951 0.000, 901.106 0.000, 908.678 "
fill = "none" stroke = "black"/>
</g>
<g>
<polygon points = "999.459, 980.484 999.482, 985.290 1000.000, 988.973 1000.000, 980.277 "
fill = "none" stroke = "black"/>
</g>
<g>
<polygon points = "999.482, 985.290 999.224, 998.262 1000.000, 998.005 1000.000, 988.973 "
fill = "none" stroke = "black"/>
</g>
<g>
<polygon points = "802.411, 2.353 813.388, 0.000 793.814, 0.000 "
fill = "none" stroke = "black"/>
</g>
<g>
<polygon points = "960.971, 563.696 631.267, 726.063 676.978, 801.274 820.927, 943.598 838.115, 947.249 931.430, 897.498 987.243, 560.047 "
fill = "none" stroke = "black"/>
</g>
<g>
<polygon points = ""
fill = "none" stroke = "black"/>
</g>
<g>
<polygon points = "154.798, 73.113 250.476, 36.037 287.735, 5.512 283.479, 1.413 273.072, 0.000 66.954, 0.000 "
fill = "none" stroke = "black"/>
</g>
<g>
<polygon points = "999.224, 998.262 998.726, 1000.000 1000.000, 1000.000 1000.000, 998.005 "
fill = "none" stroke = "black"/>
</g>
<g>
<polygon points = "997.566, 565.426 1000.000, 570.587 1000.000, 559.650 "
fill = "none" stroke = "black"/>
</g>
<g>
<polygon points = "802.411, 2.353 815.503, 39.719 953.304, 84.414 991.579, 34.600 993.507, 10.935 976.382, 0.581 970.895, 0.000 813.388, 0.000 "
fill = "none" stroke = "black"/>
</g>
<g>
<polygon points = "137.507, 912.165 65.909, 973.113 61.054, 984.269 123.085, 992.413 148.727, 986.805 172.191, 953.943 "
fill = "none" stroke = "black"/>
</g>
<g>
<polygon points = ""
fill = "none" stroke = "black"/>
</g>
<g>
<polygon points = "998.444, 49.079 991.579, 34.600 953.304, 84.414 1000.000, 318.003 1000.000, 210.377 "
fill = "none" stroke = "black"/>
</g>
<g>
<polygon points = ""
fill = "none" stroke = "black"/>
</g>
<g>
<polygon points = "287.735, 5.512 250.476, 36.037 463.069, 200.680 738.700, 136.237 801.450, 77.696 815.503, 39.719 802.411, 2.353 793.814, 0.000 558.656, 0.000 "
fill = "none" stroke = "black"/>
</g>
<g>
<polygon points = ""
fill = "none" stroke = "black"/>
</g>
<g>
<polygon points = "801.450, 77.696 738.700, 136.237 628.012, 724.675 631.267, 726.063 960.971, 563.696 "
fill = "none" stroke = "black"/>
</g>
<g>
<polygon points = ""
fill = "none" stroke = "black"/>
</g>
<g>
<polygon points = "21.381, 0.046 21.652, 0.000 21.381, 0.000 "
fill = "none" stroke = "black"/>
</g>
<g>
<polygon points = "148.727, 986.805 123.085, 992.413 114.364, 1000.000 164.213, 1000.000 "
fill = "none" stroke = "black"/>
</g>
<g>
<polygon points = "2.205, 1000.000 28.926, 1000.000 50.873, 993.490 61.054, 984.269 65.909, 973.113 30.707, 960.355 0.000, 984.085 0.000, 997.525 "
fill = "none" stroke = "black"/>
</g>
<g>
<polygon points = "30.707, 960.355 65.909, 973.113 137.507, 912.165 137.215, 901.721 99.746, 874.621 14.882, 908.189 "
fill = "none" stroke = "black"/>
</g>
<g>
<polygon points = "976.382, 0.581 978.430, 0.000 970.895, 0.000 "
fill = "none" stroke = "black"/>
</g>
<g>
<polygon points = "266.580, 994.622 234.697, 1000.000 292.788, 1000.000 "
fill = "none" stroke = "black"/>
</g>
<g>
<polygon points = "0.351, 0.000 0.000, 0.000 0.000, 0.350 "
fill = "none" stroke = "black"/>
</g>
<g>
<polygon points = "283.479, 1.413 287.735, 5.512 558.656, 0.000 286.347, 0.000 "
fill = "none" stroke = "black"/>
</g>
<g>
<polygon points = ""
fill = "none" stroke = "black"/>
</g>
<g>
<polygon points = "35.135, 774.313 99.746, 874.621 137.215, 901.721 371.033, 660.652 118.547, 387.067 6.656, 485.269 "
fill = "none" stroke = "black"/>
</g>
<g>
<polygon points = "997.806, 975.177 999.459, 980.484 1000.000, 980.277 1000.000, 965.881 "
fill = "none" stroke = "black"/>
</g>
<g>
<polygon points = "676.978, 801.274 335.199, 1000.000 771.483, 1000.000 820.927, 943.598 "
fill = "none" stroke = "black"/>
</g>
<g>
<polygon points = "976.382, 0.581 993.507, 10.935 995.526, 9.474 999.454, 1.610 999.544, 1.192 992.604, 0.000 978.430, 0.000 "
fill = "none" stroke = "black"/>
</g>
<g>
<polygon points = "30.707, 960.355 14.882, 908.189 3.704, 903.443 0.232, 907.951 0.000, 908.678 0.000, 984.085 "
fill = "none" stroke = "black"/>
</g>
<g>
<polygon points = "998.444, 49.079 1000.000, 210.377 1000.000, 47.605 "
fill = "none" stroke = "black"/>
</g>
<g>
<polygon points = "2.205, 1000.000 0.000, 997.525 0.000, 1000.000 "
fill = "none" stroke = "black"/>
</g>
<g>
<polygon points = "0.488, 788.669 35.135, 774.313 6.656, 485.269 0.000, 482.369 0.000, 787.960 "
fill = "none" stroke = "black"/>
</g>
<g>
<polygon points = "999.224, 998.262 999.482, 985.290 999.459, 980.484 997.806, 975.177 924.457, 1000.000 998.726, 1000.000 "
fill = "none" stroke = "black"/>
</g>
<g>
<polygon points = "995.526, 9.474 993.507, 10.935 991.579, 34.600 998.444, 49.079 1000.000, 47.605 1000.000, 11.255 "
fill = "none" stroke = "black"/>
</g>
<g>
<polygon points = "676.978, 801.274 631.267, 726.063 628.012, 724.675 402.042, 664.014 371.033, 660.652 137.215, 901.721 137.507, 912.165 172.191, 953.943 266.580, 994.622 292.788, 1000.000 335.199, 1000.000 "
fill = "none" stroke = "black"/>
</g>
<g>
<polygon points = ""
fill = "none" stroke = "black"/>
</g>
<g>
<polygon points = ""
fill = "none" stroke = "black"/>
</g>
<g>
<polygon points = "953.304, 84.414 815.503, 39.719 801.450, 77.696 960.971, 563.696 987.243, 560.047 989.622, 558.598 1000.000, 494.207 1000.000, 318.003 "
fill = "none" stroke = "black"/>
</g>
<g>
<polygon points = "116.323, 373.936 154.798, 73.113 66.954, 0.000 21.652, 0.000 21.381, 0.046 19.454, 0.577 3.547, 18.988 0.000, 30.833 0.000, 216.603 "
fill = "none" stroke = "black"/>
</g>
<g>
<polygon points = "989.622, 558.598 997.566, 565.426 1000.000, 559.650 1000.000, 494.207 "
fill = "none" stroke = "black"/>
</g>
<g>
<circle cx= "295.005" cy="845.677" r="3"
fill = "red" stroke = "red"/>
</g>
<g>
<circle cx= "713.534" cy="639.451" r="3"
fill = "red" stroke = "red"/>
</g>
<g>
<circle cx= "745.873" cy="105.596" r="3"
fill = "red" stroke = "red"/>
</g>
<g>
<circle cx= "250.753" cy="593.444" r="3"
fill = "red" stroke = "red"/>
</g>
<g>
<circle cx= "984.660" cy="813.415" r="3"
fill = "red" stroke = "red"/>
</g>
<g>
<circle cx= "931.205" cy="239.017" r="3"
fill = "red" stroke = "red"/>
</g>
<g>
<circle cx= "844.176" cy="940.325" r="3"
fill = "red" stroke = "red"/>
</g>
<g>
<circle cx= "966.165" cy="670.142" r="3"
fill = "red" stroke = "red"/>
</g>
<g>
<circle cx= "924.816" cy="616.474" r="3"
fill = "red" stroke = "red"/>
</g>
<g>
<circle cx= "915.438" cy="225.417" r="3"
fill = "red" stroke = "red"/>
</g>
<g>
<circle cx= "419.481" cy="791.213" r="3"
fill = "red" stroke = "red"/>
</g>
<g>
<circle cx= "84.680" cy="775.063" r="3"
fill = "red" stroke = "red"/>
</g>
<g>
<circle cx= "512.323" cy="383.046" r="3"
fill = "red" stroke = "red"/>
</g>
<g>
<circle cx= "144.274" cy="187.286" r="3"
fill = "red" stroke = "red"/>
</g>
<g>
<circle cx= "275.396" cy="423.180" r="3"
fill = "red" stroke = "red"/>
</g>
<g>
<circle cx= "607.915" cy="770.468" r="3"
fill = "red" stroke = "red"/>
</g>
<g>
<circle cx= "739.124" cy="548.552" r="3"
fill = "red" stroke = "red"/>
</g>
<g>
<circle cx= "483.903" cy="48.080" r="3"
fill = "red" stroke = "red"/>
</g>
<g>
<circle cx= "916.534" cy="805.618" r="3"
fill = "red" stroke = "red"/>
</g>
<g>
<circle cx= "969.992" cy="351.529" r="3"
fill = "red" stroke = "red"/>
</g>
<g>
<circle cx= "854.570" cy="246.848" r="3"
fill = "red" stroke = "red"/>
</g>
<g>
<circle cx= "219.061" cy="244.287" r="3"
fill = "red" stroke = "red"/>
</g>
<g>
<circle cx= "271.848" cy="55.551" r="3"
fill = "red" stroke = "red"/>
</g>
<g>
<circle cx= "348.795" cy="807.692" r="3"
fill = "red" stroke = "red"/>
</g>
<g>
<circle cx= "126.894" cy="294.333" r="3"
fill = "red" stroke = "red"/>
</g>
<g>
<circle cx= "137.288" cy="596.623" r="3"
fill = "red" stroke = "red"/>
</g>
<g>
<circle cx= "552.128" cy="388.289" r="3"
fill = "red" stroke = "red"/>
</g>
<g>
<circle cx= "28.881" cy="600.290" r="3"
fill = "red" stroke = "red"/>
</g>
<g>
<circle cx= "919.157" cy="731.428" r="3"
fill = "red" stroke = "red"/>
</g>
<g>
<circle cx= "892.382" cy="735.193" r="3"
fill = "red" stroke = "red"/>
</g>
<g>
<circle cx= "613.846" cy="82.129" r="3"
fill = "red" stroke = "red"/>
</g>
<g>
<circle cx= "657.908" cy="535.120" r="3"
fill = "red" stroke = "red"/>
</g>
<g>
<circle cx= "246.027" cy="25.379" r="3"
fill = "red" stroke = "red"/>
</g>
<g>
<circle cx= "457.593" cy="241.810" r="3"
fill = "red" stroke = "red"/>
</g>
<g>
<circle cx= "906.778" cy="778.667" r="3"
fill = "red" stroke = "red"/>
</g>
<g>
<circle cx= "943.152" cy="452.332" r="3"
fill = "red" stroke = "red"/>
</g>
<g>
<circle cx= "661.195" cy="303.007" r="3"
fill = "red" stroke = "red"/>
</g>
<g>
<circle cx= "356.831" cy="746.480" r="3"
fill = "red" stroke = "red"/>
</g>
<g>
<circle cx= "912.900" cy="883.755" r="3"
fill = "red" stroke = "red"/>
</g>
<g>
<circle cx= "735.267" cy="359.921" r="3"
fill = "red" stroke = "red"/>
</g>
<g>
<circle cx= "803.470" cy="84.397" r="3"
fill = "red" stroke = "red"/>
</g>
<g>
<circle cx= "541.956" cy="344.783" r="3"
fill = "red" stroke = "red"/>
</g>
<g>
<circle cx= "228.294" cy="63.272" r="3"
fill = "red" stroke = "red"/>
</g>
<g>
<circle cx= "589.017" cy="395.228" r="3"
fill = "red" stroke = "red"/>
</g>
<g>
<circle cx= "405.069" cy="7.300" r="3"
fill = "red" stroke = "red"/>
</g>
<g>
<circle cx= "304.632" cy="55.371" r="3"
fill = "red" stroke = "red"/>
</g>
<g>
<circle cx= "377.412" cy="840.587" r="3"
fill = "red" stroke = "red"/>
</g>
<g>
<circle cx= "252.056" cy="700.882" r="3"
fill = "red" stroke = "red"/>
</g>
<g>
<circle cx= "271.753" cy="646.535" r="3"
fill = "red" stroke = "red"/>
</g>
<g>
<circle cx= "689.532" cy="35.614" r="3"
fill = "red" stroke = "red"/>
</g>
<g>
<circle cx= "434.826" cy="882.191" r="3"
fill = "red" stroke = "red"/>
</g>
<g>
<circle cx= "19.096" cy="61.430" r="3"
fill = "red" stroke = "red"/>
</g>
<g>
<circle cx= "538.159" cy="158.149" r="3"
fill = "red" stroke = "red"/>
</g>
<g>
<circle cx= "983.529" cy="820.113" r="3"
fill = "red" stroke = "red"/>
</g>
<g>
<circle cx= "361.961" cy="521.812" r="3"
fill = "red" stroke = "red"/>
</g>
<g>
<circle cx= "900.893" cy="683.673" r="3"
fill = "red" stroke = "red"/>
</g>
<g>
<circle cx= "510.044" cy="684.671" r="3"
fill = "red" stroke = "red"/>
</g>
<g>
<circle cx= "732.124" cy="185.683" r="3"
fill = "red" stroke = "red"/>
</g>
<g>
<circle cx= "221.773" cy="661.697" r="3"
fill = "red" stroke = "red"/>
</g>
<g>
<circle cx= "866.760" cy="358.653" r="3"
fill = "red" stroke = "red"/>
</g>
<g>
<circle cx= "123.947" cy="815.004" r="3"
fill = "red" stroke = "red"/>
</g>
<g>
<circle cx= "226.600" cy="535.149" r="3"
fill = "red" stroke = "red"/>
</g>
<g>
<circle cx= "744.944" cy="732.265" r="3"
fill = "red" stroke = "red"/>
</g>
<g>
<circle cx= "826.839" cy="316.506" r="3"
fill = "red" stroke = "red"/>
</g>
<g>
<circle cx= "484.403" cy="640.572" r="3"
fill = "red" stroke = "red"/>
</g>
<g>
<circle cx= "911.598" cy="765.829" r="3"
fill = "red" stroke = "red"/>
</g>
<g>
<circle cx= "708.811" cy="15.670" r="3"
fill = "red" stroke = "red"/>
</g>
<g>
<circle cx= "636.319" cy="379.701" r="3"
fill = "red" stroke = "red"/>
</g>
<g>
<circle cx= "356.616" cy="363.131" r="3"
fill = "red" stroke = "red"/>
</g>
<g>
<circle cx= "854.084" cy="414.800" r="3"
fill = "red" stroke = "red"/>
</g>
</svg>
