<svg xmlns = "http://www.w3.org/2000/svg" width = "1000" height = "1000">
<g>
<polygon points = "0.132, 1000.000 3.825, 1000.000 8.543, 996.752 5.379, 996.732 0.000, 999.256 0.000, 999.969 "
fill = "none" stroke = "black"/>
</g>
<g>
<polygon points = ""
fill = "none" stroke = "black"/>
</g>
<g>
<polygon points = "491.436, 98.187 431.701, 46.900 370.310, 21.039 353.621, 19.214 323.237, 25.507 296.936, 230.048 394.054, 273.404 "
fill = "none" stroke = "black"/>
</g>
<g>
<polygon points = "42.195, 167.097 21.444, 216.158 15.391, 357.496 114.366, 371.031 132.790, 200.807 42.880, 166.173 "
fill = "none" stroke = "black"/>
</g>
<g>
<polygon points = ""
fill = "none" stroke = "black"/>
</g>
<g>
<polygon points = "301.035, 1.542 312.585, 0.000 287.853, 0.000 "
fill = "none" stroke = "black"/>
</g>
<g>
<polygon points = "644.701, 999.226 640.902, 1000.000 665.892, 1000.000 "
fill = "none" stroke = "black"/>
</g>
<g>
<polygon points = ""
fill = "none" stroke = "black"/>
</g>
<g>
<polygon points = "811.052, 763.370 492.608, 537.850 366.810, 672.715 408.385, 781.968 698.949, 880.665 "
fill = "none" stroke = "black"/>
</g>
<g>
<polygon points = "871.151, 2.051 875.446, 0.000 855.469, 0.000 "
fill = "none" stroke = "black"/>
</g>
<g>
<polygon points = "999.675, 825.172 999.055, 829.936 1000.000, 830.116 1000.000, 824.214 "
fill = "none" stroke = "black"/>
</g>
<g>
<polygon points = "52.071, 36.022 42.880, 166.173 132.790, 200.807 141.226, 194.211 155.308, 43.441 93.330, 14.473 "
fill = "none" stroke = "black"/>
</g>
<g>
<polygon points = "975.099, 998.012 965.100, 994.993 957.652, 997.958 959.113, 1000.000 974.616, 1000.000 "
fill = "none" stroke = "black"/>
</g>
<g>
<polygon points = "93.330, 14.473 155.308, 43.441 323.237, 25.507 353.621, 19.214 301.035, 1.542 287.853, 0.000 96.467, 0.000 "
fill = "none" stroke = "black"/>
</g>
<g>
<polygon points = "94.333, 998.704 24.063, 984.044 17.173, 990.487 31.291, 1000.000 65.706, 1000.000 "
fill = "none" stroke = "black"/>
</g>
<g>
<polygon points = "995.698, 994.940 993.563, 996.973 996.504, 1000.000 998.274, 1000.000 999.659, 997.770 "
fill = "none" stroke = "black"/>
</g>
<g>
<polygon points = ""
fill = "none" stroke = "black"/>
</g>
<g>
<polygon points = "5.379, 996.732 8.543, 996.752 8.567, 996.746 12.213, 995.265 15.305, 991.636 0.000, 984.120 0.000, 990.750 "
fill = "none" stroke = "black"/>
</g>
<g>
<polygon points = "394.022, 2.135 400.032, 3.362 420.921, 0.000 393.452, 0.000 "
fill = "none" stroke = "black"/>
</g>
<g>
<polygon points = "225.150, 998.261 202.316, 999.660 204.046, 1000.000 237.576, 1000.000 "
fill = "none" stroke = "black"/>
</g>
<g>
<polygon points = "500.940, 10.655 431.701, 46.900 491.436, 98.187 506.908, 98.863 644.077, 1.849 636.489, 0.367 617.473, 0.000 594.107, 0.000 "
fill = "none" stroke = "black"/>
</g>
<g>
<polygon points = "301.035, 1.542 353.621, 19.214 370.310, 21.039 377.588, 15.600 334.127, 0.214 329.321, 0.000 312.585, 0.000 "
fill = "none" stroke = "black"/>
</g>
<g>
<polygon points = "337.940, 673.502 366.810, 672.715 492.608, 537.850 486.993, 430.393 391.579, 335.674 172.742, 392.588 "
fill = "none" stroke = "black"/>
</g>
<g>
<polygon points = "773.490, 2.926 677.403, 168.453 738.166, 217.947 860.026, 127.887 906.457, 43.730 898.201, 14.606 891.008, 8.356 871.151, 2.051 855.469, 0.000 837.857, 0.000 "
fill = "none" stroke = "black"/>
</g>
<g>
<polygon points = "349.554, 829.623 467.008, 973.218 673.147, 950.453 698.452, 937.898 698.949, 880.665 408.385, 781.968 "
fill = "none" stroke = "black"/>
</g>
<g>
<polygon points = "1.924, 349.624 0.000, 326.595 0.000, 353.960 "
fill = "none" stroke = "black"/>
</g>
<g>
<polygon points = "8.567, 996.746 8.543, 996.752 3.825, 1000.000 8.995, 1000.000 "
fill = "none" stroke = "black"/>
</g>
<g>
<polygon points = "7.112, 205.998 21.444, 216.158 42.195, 167.097 0.976, 94.587 0.000, 110.051 0.000, 184.619 "
fill = "none" stroke = "black"/>
</g>
<g>
<polygon points = "0.976, 93.991 0.976, 94.587 42.195, 167.097 42.880, 166.173 52.071, 36.022 33.952, 30.785 19.191, 50.540 "
fill = "none" stroke = "black"/>
</g>
<g>
<polygon points = ""
fill = "none" stroke = "black"/>
</g>
<g>
<polygon points = "141.226, 194.211 132.790, 200.807 114.366, 371.031 138.122, 392.702 172.742, 392.588 391.579, 335.674 394.054, 273.404 296.936, 230.048 "
fill = "none" stroke = "black"/>
</g>
<g>
<polygon points = "998.703, 863.174 1000.000, 904.650 1000.000, 854.454 "
fill = "none" stroke = "black"/>
</g>
<g>
<polygon points = ""
fill = "none" stroke = "black"/>
</g>
<g>
<polygon points = ""
fill = "none" stroke = "black"/>
</g>
<g>
<polygon points = "999.676, 657.121 993.351, 699.223 999.675, 825.172 1000.000, 824.214 1000.000, 660.763 "
fill = "none" stroke = "black"/>
</g>
<g>
<polygon points = "992.526, 31.313 995.255, 14.586 944.724, 5.172 898.201, 14.606 906.457, 43.730 972.288, 52.596 "
fill = "none" stroke = "black"/>
</g>
<g>
<polygon points = "34.234, 928.636 24.764, 606.440 0.000, 590.219 0.000, 898.653 "
fill = "none" stroke = "black"/>
</g>
<g>
<polygon points = "1.924, 349.624 9.220, 364.930 15.391, 357.496 21.444, 216.158 7.112, 205.998 0.000, 316.453 0.000, 326.595 "
fill = "none" stroke = "black"/>
</g>
<g>
<polygon points = "7.112, 205.998 0.000, 184.619 0.000, 316.453 "
fill = "none" stroke = "black"/>
</g>
<g>
<polygon points = "999.659, 997.770 998.274, 1000.000 1000.000, 1000.000 1000.000, 997.742 "
fill = "none" stroke = "black"/>
</g>
<g>
<polygon points = ""
fill = "none" stroke = "black"/>
</g>
<g>
<polygon points = "904.343, 195.574 860.026, 127.887 738.166, 217.947 724.890, 312.425 846.273, 563.015 "
fill = "none" stroke = "black"/>
</g>
<g>
<polygon points = "998.444, 832.041 981.557, 848.978 981.916, 870.302 987.644, 877.317 998.703, 863.174 1000.000, 854.454 1000.000, 853.445 "
fill = "none" stroke = "black"/>
</g>
<g>
<polygon points = ""
fill = "none" stroke = "black"/>
</g>
<g>
<polygon points = ""
fill = "none" stroke = "black"/>
</g>
<g>
<polygon points = "22.663, 15.314 33.952, 30.785 52.071, 36.022 93.330, 14.473 96.467, 0.000 81.138, 0.000 "
fill = "none" stroke = "black"/>
</g>
<g>
<polygon points = "2.750, 0.000 0.000, 0.000 0.000, 1.839 "
fill = "none" stroke = "black"/>
</g>
<g>
<polygon points = ""
fill = "none" stroke = "black"/>
</g>
<g>
<polygon points = "636.489, 0.367 637.780, 0.000 617.473, 0.000 "
fill = "none" stroke = "black"/>
</g>
<g>
<polygon points = "162.601, 729.554 59.632, 937.270 114.313, 938.677 349.554, 829.623 408.385, 781.968 366.810, 672.715 337.940, 673.502 "
fill = "none" stroke = "black"/>
</g>
<g>
<polygon points = "866.802, 751.928 856.741, 593.710 846.273, 563.015 724.890, 312.425 486.993, 430.393 492.608, 537.850 811.052, 763.370 "
fill = "none" stroke = "black"/>
</g>
<g>
<polygon points = "49.584, 599.936 24.764, 606.440 34.234, 928.636 42.931, 943.983 59.632, 937.270 162.601, 729.554 "
fill = "none" stroke = "black"/>
</g>
<g>
<polygon points = ""
fill = "none" stroke = "black"/>
</g>
<g>
<polygon points = ""
fill = "none" stroke = "black"/>
</g>
<g>
<polygon points = ""
fill = "none" stroke = "black"/>
</g>
<g>
<polygon points = ""
fill = "none" stroke = "black"/>
</g>
<g>
<polygon points = "993.351, 699.223 982.682, 673.867 925.556, 561.538 856.741, 593.710 866.802, 751.928 981.557, 848.978 998.444, 832.041 998.468, 831.995 999.055, 829.936 999.675, 825.172 "
fill = "none" stroke = "black"/>
</g>
<g>
<polygon points = "2.044, 15.964 2.580, 29.610 19.191, 50.540 33.952, 30.785 22.663, 15.314 13.600, 9.354 "
fill = "none" stroke = "black"/>
</g>
<g>
<polygon points = ""
fill = "none" stroke = "black"/>
</g>
<g>
<polygon points = "15.305, 991.636 17.173, 990.487 24.063, 984.044 31.216, 966.829 0.000, 939.904 0.000, 984.120 "
fill = "none" stroke = "black"/>
</g>
<g>
<polygon points = "400.032, 3.362 377.588, 15.600 370.310, 21.039 431.701, 46.900 500.940, 10.655 451.828, 0.000 420.921, 0.000 "
fill = "none" stroke = "black"/>
</g>
<g>
<polygon points = "114.313, 938.677 245.107, 994.945 365.038, 999.644 467.008, 973.218 349.554, 829.623 "
fill = "none" stroke = "black"/>
</g>
<g>
<polygon points = "998.467, 138.502 997.174, 151.316 1000.000, 192.480 1000.000, 152.331 "
fill = "none" stroke = "black"/>
</g>
<g>
<polygon points = "1000.000, 0.411 1000.000, 0.000 999.565, 0.000 "
fill = "none" stroke = "black"/>
</g>
<g>
<polygon points = "17.173, 990.487 15.305, 991.636 12.213, 995.265 12.038, 1000.000 31.291, 1000.000 "
fill = "none" stroke = "black"/>
</g>
<g>
<polygon points = ""
fill = "none" stroke = "black"/>
</g>
<g>
<polygon points = "2.580, 29.610 2.044, 15.964 0.000, 13.871 0.000, 55.151 "
fill = "none" stroke = "black"/>
</g>
<g>
<polygon points = "866.145, 990.987 857.214, 996.846 858.999, 1000.000 939.026, 1000.000 952.970, 998.052 "
fill = "none" stroke = "black"/>
</g>
<g>
<polygon points = ""
fill = "none" stroke = "black"/>
</g>
<g>
<polygon points = "957.652, 997.958 952.970, 998.052 939.026, 1000.000 959.113, 1000.000 "
fill = "none" stroke = "black"/>
</g>
<g>
<polygon points = ""
fill = "none" stroke = "black"/>
</g>
<g>
<polygon points = ""
fill = "none" stroke = "black"/>
</g>
<g>
<polygon points = "999.055, 829.936 998.468, 831.995 1000.000, 833.407 1000.000, 830.116 "
fill = "none" stroke = "black"/>
</g>
<g>
<polygon points = "995.936, 990.290 992.594, 958.119 987.396, 949.131 984.007, 946.106 965.100, 994.993 975.099, 998.012 990.222, 997.942 993.563, 996.973 995.698, 994.940 "
fill = "none" stroke = "black"/>
</g>
<g>
<polygon points = "990.002, 999.197 986.743, 1000.000 992.821, 1000.000 "
fill = "none" stroke = "black"/>
</g>
<g>
<polygon points = "984.007, 946.106 974.013, 917.175 852.175, 965.121 866.145, 990.987 952.970, 998.052 957.652, 997.958 965.100, 994.993 "
fill = "none" stroke = "black"/>
</g>
<g>
<polygon points = "0.976, 93.991 19.191, 50.540 2.580, 29.610 0.000, 55.151 0.000, 88.954 "
fill = "none" stroke = "black"/>
</g>
<g>
<polygon points = "365.038, 999.644 245.107, 994.945 225.150, 998.261 237.576, 1000.000 366.363, 1000.000 "
fill = "none" stroke = "black"/>
</g>
<g>
<polygon points = ""
fill = "none" stroke = "black"/>
</g>
<g>
<polygon points = "12.213, 995.265 8.567, 996.746 8.995, 1000.000 12.038, 1000.000 "
fill = "none" stroke = "black"/>
</g>
<g>
<polygon points = "673.147, 950.453 467.008, 973.218 365.038, 999.644 366.363, 1000.000 640.902, 1000.000 644.701, 999.226 "
fill = "none" stroke = "black"/>
</g>
<g>
<polygon points = "724.890, 312.425 738.166, 217.947 677.403, 168.453 506.908, 98.863 491.436, 98.187 394.054, 273.404 391.579, 335.674 486.993, 430.393 "
fill = "none" stroke = "black"/>
</g>
<g>
<polygon points = ""
fill = "none" stroke = "black"/>
</g>
<g>
<polygon points = "998.056, 7.080 996.317, 13.114 1000.000, 15.299 1000.000, 8.482 "
fill = "none" stroke = "black"/>
</g>
<g>
<polygon points = "12.016, 6.207 13.600, 9.354 22.663, 15.314 81.138, 0.000 48.119, 0.000 "
fill = "none" stroke = "black"/>
</g>
<g>
<polygon points = "636.489, 0.367 644.077, 1.849 745.884, 0.618 745.898, 0.523 737.784, 0.000 637.780, 0.000 "
fill = "none" stroke = "black"/>
</g>
<g>
<polygon points = "344.673, 0.349 394.022, 2.135 393.452, 0.000 365.372, 0.000 "
fill = "none" stroke = "black"/>
</g>
<g>
<polygon points = "743.761, 998.294 748.055, 952.059 698.452, 937.898 673.147, 950.453 644.701, 999.226 665.892, 1000.000 735.825, 1000.000 "
fill = "none" stroke = "black"/>
</g>
<g>
<polygon points = "997.174, 151.316 972.288, 52.596 906.457, 43.730 860.026, 127.887 904.343, 195.574 986.108, 237.794 1000.000, 222.147 1000.000, 192.480 "
fill = "none" stroke = "black"/>
</g>
<g>
<polygon points = "999.676, 657.121 1000.000, 660.763 1000.000, 638.393 "
fill = "none" stroke = "black"/>
</g>
<g>
<polygon points = ""
fill = "none" stroke = "black"/>
</g>
<g>
<polygon points = ""
fill = "none" stroke = "black"/>
</g>
<g>
<polygon points = ""
fill = "none" stroke = "black"/>
</g>
<g>
<polygon points = "245.107, 994.945 114.313, 938.677 59.632, 937.270 42.931, 943.983 31.216, 966.829 24.063, 984.044 94.333, 998.704 109.241, 1000.000 175.242, 1000.000 202.316, 999.660 225.150, 998.261 "
fill = "none" stroke = "black"/>
</g>
<g>
<polygon points = ""
fill = "none" stroke = "black"/>
</g>
<g>
<polygon points = "0.976, 94.587 0.976, 93.991 0.000, 88.954 0.000, 110.051 "
fill = "none" stroke = "black"/>
</g>
<g>
<polygon points = "155.308, 43.441 141.226, 194.211 296.936, 230.048 323.237, 25.507 "
fill = "none" stroke = "black"/>
</g>
<g>
<polygon points = "993.258, 958.400 1000.000, 967.541 1000.000, 948.745 "
fill = "none" stroke = "black"/>
</g>
<g>
<polygon points = ""
fill = "none" stroke = "black"/>
</g>
<g>
<polygon points = "947.762, 0.712 944.724, 5.172 995.255, 14.586 996.317, 13.114 998.056, 7.080 998.566, 3.706 997.015, 0.000 952.917, 0.000 "
fill = "none" stroke = "black"/>
</g>
<g>
<polygon points = ""
fill = "none" stroke = "black"/>
</g>
<g>
<polygon points = "978.012, 287.304 925.556, 561.538 982.682, 673.867 "
fill = "none" stroke = "black"/>
</g>
<g>
<polygon points = "996.317, 13.114 995.255, 14.586 992.526, 31.313 1000.000, 39.757 1000.000, 15.299 "
fill = "none" stroke = "black"/>
</g>
<g>
<polygon points = "94.333, 998.704 65.706, 1000.000 109.241, 1000.000 "
fill = "none" stroke = "black"/>
</g>
<g>
<polygon points = "9.220, 364.930 1.924, 349.624 0.000, 353.960 0.000, 408.576 "
fill = "none" stroke = "black"/>
</g>
<g>
<polygon points = ""
fill = "none" stroke = "black"/>
</g>
<g>
<polygon points = ""
fill = "none" stroke = "black"/>
</g>
<g>
<polygon points = ""
fill = "none" stroke = "black"/>
</g>
<g>
<polygon points = "947.762, 0.712 952.917, 0.000 939.509, 0.000 "
fill = "none" stroke = "black"/>
</g>
<g>
<polygon points = "998.467, 138.502 1000.000, 152.331 1000.000, 112.773 "
fill = "none" stroke = "black"/>
</g>
<g>
<polygon points = "12.016, 6.207 48.119, 0.000 5.530, 0.000 "
fill = "none" stroke = "black"/>
</g>
<g>
<polygon points = "871.151, 2.051 891.008, 8.356 900.910, 0.000 875.446, 0.000 "
fill = "none" stroke = "black"/>
</g>
<g>
<polygon points = "49.584, 599.936 162.601, 729.554 337.940, 673.502 172.742, 392.588 138.122, 392.702 "
fill = "none" stroke = "black"/>
</g>
<g>
<polygon points = ""
fill = "none" stroke = "black"/>
</g>
<g>
<polygon points = "334.127, 0.214 344.673, 0.349 365.372, 0.000 329.321, 0.000 "
fill = "none" stroke = "black"/>
</g>
<g>
<polygon points = "987.396, 949.131 992.594, 958.119 993.258, 958.400 1000.000, 948.745 1000.000, 918.829 "
fill = "none" stroke = "black"/>
</g>
<g>
<polygon points = "987.644, 877.317 981.916, 870.302 974.013, 917.175 984.007, 946.106 987.396, 949.131 1000.000, 918.829 1000.000, 909.150 "
fill = "none" stroke = "black"/>
</g>
<g>
<polygon points = "745.898, 0.523 745.884, 0.618 773.490, 2.926 837.857, 0.000 749.696, 0.000 "
fill = "none" stroke = "black"/>
</g>
<g>
<polygon points = "748.055, 952.059 852.175, 965.121 974.013, 917.175 981.916, 870.302 981.557, 848.978 866.802, 751.928 811.052, 763.370 698.949, 880.665 698.452, 937.898 "
fill = "none" stroke = "black"/>
</g>
<g>
<polygon points = "2.044, 15.964 13.600, 9.354 12.016, 6.207 5.530, 0.000 2.750, 0.000 0.000, 1.839 0.000, 13.871 "
fill = "none" stroke = "black"/>
</g>
<g>
<polygon points = "857.214, 996.846 743.761, 998.294 735.825, 1000.000 858.999, 1000.000 "
fill = "none" stroke = "black"/>
</g>
<g>
<polygon points = "202.316, 999.660 175.242, 1000.000 204.046, 1000.000 "
fill = "none" stroke = "black"/>
</g>
<g>
<polygon points = ""
fill = "none" stroke = "black"/>
</g>
<g>
<polygon points = "998.566, 3.706 1000.000, 2.553 1000.000, 0.411 999.565, 0.000 997.015, 0.000 "
fill = "none" stroke = "black"/>
</g>
<g>
<polygon points = "993.258, 958.400 992.594, 958.119 995.936, 990.290 1000.000, 983.830 1000.000, 967.541 "
fill = "none" stroke = "black"/>
</g>
<g>
<polygon points = "334.127, 0.214 377.588, 15.600 400.032, 3.362 394.022, 2.135 344.673, 0.349 "
fill = "none" stroke = "black"/>
</g>
<g>
<polygon points = "745.898, 0.523 749.696, 0.000 737.784, 0.000 "
fill = "none" stroke = "black"/>
</g>
<g>
<polygon points = "993.563, 996.973 990.222, 997.942 990.002, 999.197 992.821, 1000.000 996.504, 1000.000 "
fill = "none" stroke = "black"/>
</g>
<g>
<polygon points = "891.008, 8.356 898.201, 14.606 944.724, 5.172 947.762, 0.712 939.509, 0.000 900.910, 0.000 "
fill = "none" stroke = "black"/>
</g>
<g>
<polygon points = ""
fill = "none" stroke = "black"/>
</g>
<g>
<polygon points = "0.132, 1000.000 0.000, 999.969 0.000, 1000.000 "
fill = "none" stroke = "black"/>
</g>
<g>
<polygon points = "31.216, 966.829 42.931, 943.983 34.234, 928.636 0.000, 898.653 0.000, 939.904 "
fill = "none" stroke = "black"/>
</g>
<g>
<polygon points = ""
fill = "none" stroke = "black"/>
</g>
<g>
<polygon points = "990.002, 999.197 990.222, 997.942 975.099, 998.012 974.616, 1000.000 986.743, 1000.000 "
fill = "none" stroke = "black"/>
</g>
<g>
<polygon points = "998.468, 831.995 998.444, 832.041 1000.000, 853.445 1000.000, 833.407 "
fill = "none" stroke = "black"/>
</g>
<g>
<polygon points = "24.764, 606.440 49.584, 599.936 138.122, 392.702 114.366, 371.031 15.391, 357.496 9.220, 364.930 0.000, 408.576 0.000, 590.219 "
fill = "none" stroke = "black"/>
</g>
<g>
<polygon points = "857.214, 996.846 866.145, 990.987 852.175, 965.121 748.055, 952.059 743.761, 998.294 "
fill = "none" stroke = "black"/>
</g>
<g>
<polygon points = "992.526, 31.313 972.288, 52.596 997.174, 151.316 998.467, 138.502 1000.000, 112.773 1000.000, 39.757 "
fill = "none" stroke = "black"/>
</g>
<g>
<polygon points = "998.566, 3.706 998.056, 7.080 1000.000, 8.482 1000.000, 2.553 "
fill = "none" stroke = "black"/>
</g>
<g>
<polygon points = ""
fill = "none" stroke = "black"/>
</g>
<g>
<polygon points = "995.936, 990.290 995.698, 994.940 999.659, 997.770 1000.000, 997.742 1000.000, 983.830 "
fill = "none" stroke = "black"/>
</g>
<g>
<polygon points = "978.012, 287.304 986.108, 237.794 904.343, 195.574 846.273, 563.015 856.741, 593.710 925.556, 561.538 "
fill = "none" stroke = "black"/>
</g>
<g>
<polygon points = "745.884, 0.618 644.077, 1.849 506.908, 98.863 677.403, 168.453 773.490, 2.926 "
fill = "none" stroke = "black"/>
</g>
<g>
<polygon points = ""
fill = "none" stroke = "black"/>
</g>
<g>
<polygon points = "986.108, 237.794 978.012, 287.304 982.682, 673.867 993.351, 699.223 999.676, 657.121 1000.000, 638.393 1000.000, 222.147 "
fill = "none" stroke = "black"/>
</g>
<g>
<polygon points = "998.703, 863.174 987.644, 877.317 1000.000, 909.150 1000.000, 904.650 "
fill = "none" stroke = "black"/>
</g>
<g>
<polygon points = "5.379, 996.732 0.000, 990.750 0.000, 999.256 "
fill = "none" stroke = "black"/>
</g>
<g>
<polygon points = "500.940, 10.655 594.107, 0.000 451.828, 0.000 "
fill = "none" stroke = "black"/>
</g>
<g>
<polygon points = ""
fill = "none" stroke = "black"/>
</g>
<g>
<polygon points = ""
fill = "none" stroke = "black"/>
</g>
<g>
<circle cx= "186.185" cy="782.998" r="3"
fill = "red" stroke = "red"/>
</g>
<g>
<circle cx= "150.224" cy="183.709" r="3"
fill = "red" stroke = "red"/>
</g>
<g>
<circle cx= "404.749" cy="382.975" r="3"
fill = "red" stroke = "red"/>
</g>
<g>
<circle cx= "338.703" cy="416.211" r="3"
fill = "red" stroke = "red"/>
</g>
<g>
<circle cx= "737.248" cy="74.647" r="3"
fill = "red" stroke = "red"/>
</g>
<g>
<circle cx= "412.620" cy="95.288" r="3"
fill = "red" stroke = "red"/>
</g>
<g>
<circle cx= "500.272" cy="930.923" r="3"
fill = "red" stroke = "red"/>
</g>
<g>
<circle cx= "984.176" cy="957.073" r="3"
fill = "red" stroke = "red"/>
</g>
<g>
<circle cx= "469.593" cy="556.579" r="3"
fill = "red" stroke = "red"/>
</g>
<g>
<circle cx= "577.254" cy="94.309" r="3"
fill = "red" stroke = "red"/>
</g>
<g>
<circle cx= "955.464" cy="522.142" r="3"
fill = "red" stroke = "red"/>
</g>
<g>
<circle cx= "353.461" cy="377.900" r="3"
fill = "red" stroke = "red"/>
</g>
<g>
<circle cx= "634.803" cy="860.630" r="3"
fill = "red" stroke = "red"/>
</g>
<g>
<circle cx= "388.273" cy="303.422" r="3"
fill = "red" stroke = "red"/>
</g>
<g>
<circle cx= "386.220" cy="798.254" r="3"
fill = "red" stroke = "red"/>
</g>
<g>
<circle cx= "743.450" cy="834.303" r="3"
fill = "red" stroke = "red"/>
</g>
<g>
<circle cx= "865.896" cy="891.939" r="3"
fill = "red" stroke = "red"/>
</g>
<g>
<circle cx= "186.726" cy="696.529" r="3"
fill = "red" stroke = "red"/>
</g>
<g>
<circle cx= "443.023" cy="115.403" r="3"
fill = "red" stroke = "red"/>
</g>
<g>
<circle cx= "418.463" cy="890.969" r="3"
fill = "red" stroke = "red"/>
</g>
<g>
<circle cx= "486.744" cy="287.474" r="3"
fill = "red" stroke = "red"/>
</g>
<g>
<circle cx= "425.585" cy="192.396" r="3"
fill = "red" stroke = "red"/>
</g>
<g>
<circle cx= "407.658" cy="498.807" r="3"
fill = "red" stroke = "red"/>
</g>
<g>
<circle cx= "544.157" cy="347.329" r="3"
fill = "red" stroke = "red"/>
</g>
<g>
<circle cx= "446.503" cy="624.555" r="3"
fill = "red" stroke = "red"/>
</g>
<g>
<circle cx= "101.956" cy="423.620" r="3"
fill = "red" stroke = "red"/>
</g>
<g>
<circle cx= "225.332" cy="839.873" r="3"
fill = "red" stroke = "red"/>
</g>
<g>
<circle cx= "261.118" cy="383.395" r="3"
fill = "red" stroke = "red"/>
</g>
<g>
<circle cx= "279.921" cy="372.707" r="3"
fill = "red" stroke = "red"/>
</g>
<g>
<circle cx= "918.238" cy="177.581" r="3"
fill = "red" stroke = "red"/>
</g>
<g>
<circle cx= "387.552" cy="421.498" r="3"
fill = "red" stroke = "red"/>
</g>
<g>
<circle cx= "878.882" cy="632.955" r="3"
fill = "red" stroke = "red"/>
</g>
<g>
<circle cx= "931.934" cy="977.859" r="3"
fill = "red" stroke = "red"/>
</g>
<g>
<circle cx= "125.357" cy="129.124" r="3"
fill = "red" stroke = "red"/>
</g>
<g>
<circle cx= "819.392" cy="475.952" r="3"
fill = "red" stroke = "red"/>
</g>
<g>
<circle cx= "677.199" cy="309.616" r="3"
fill = "red" stroke = "red"/>
</g>
<g>
<circle cx= "287.526" cy="549.102" r="3"
fill = "red" stroke = "red"/>
</g>
<g>
<circle cx= "240.828" cy="412.020" r="3"
fill = "red" stroke = "red"/>
</g>
<g>
<circle cx= "185.732" cy="408.472" r="3"
fill = "red" stroke = "red"/>
</g>
<g>
<circle cx= "805.565" cy="872.888" r="3"
fill = "red" stroke = "red"/>
</g>
<g>
<circle cx= "363.062" cy="18.170" r="3"
fill = "red" stroke = "red"/>
</g>
<g>
<circle cx= "615.729" cy="444.172" r="3"
fill = "red" stroke = "red"/>
</g>
<g>
<circle cx= "798.797" cy="621.042" r="3"
fill = "red" stroke = "red"/>
</g>
<g>
<circle cx= "148.625" cy="57.950" r="3"
fill = "red" stroke = "red"/>
</g>
<g>
<circle cx= "27.059" cy="227.566" r="3"
fill = "red" stroke = "red"/>
</g>
<g>
<circle cx= "305.153" cy="285.408" r="3"
fill = "red" stroke = "red"/>
</g>
<g>
<circle cx= "150.520" cy="207.116" r="3"
fill = "red" stroke = "red"/>
</g>
<g>
<circle cx= "995.785" cy="848.724" r="3"
fill = "red" stroke = "red"/>
</g>
<g>
<circle cx= "491.340" cy="49.122" r="3"
fill = "red" stroke = "red"/>
</g>
<g>
<circle cx= "409.854" cy="579.311" r="3"
fill = "red" stroke = "red"/>
</g>
<g>
<circle cx= "514.459" cy="493.226" r="3"
fill = "red" stroke = "red"/>
</g>
<g>
<circle cx= "345.478" cy="547.399" r="3"
fill = "red" stroke = "red"/>
</g>
<g>
<circle cx= "869.765" cy="867.614" r="3"
fill = "red" stroke = "red"/>
</g>
<g>
<circle cx= "10.374" cy="639.395" r="3"
fill = "red" stroke = "red"/>
</g>
<g>
<circle cx= "687.691" cy="979.708" r="3"
fill = "red" stroke = "red"/>
</g>
<g>
<circle cx= "39.621" cy="95.219" r="3"
fill = "red" stroke = "red"/>
</g>
<g>
<circle cx= "661.243" cy="483.892" r="3"
fill = "red" stroke = "red"/>
</g>
<g>
<circle cx= "233.276" cy="337.854" r="3"
fill = "red" stroke = "red"/>
</g>
<g>
<circle cx= "694.358" cy="931.920" r="3"
fill = "red" stroke = "red"/>
</g>
<g>
<circle cx= "222.668" cy="623.344" r="3"
fill = "red" stroke = "red"/>
</g>
<g>
<circle cx= "463.602" cy="243.266" r="3"
fill = "red" stroke = "red"/>
</g>
<g>
<circle cx= "435.138" cy="633.851" r="3"
fill = "red" stroke = "red"/>
</g>
<g>
<circle cx= "865.211" cy="399.182" r="3"
fill = "red" stroke = "red"/>
</g>
<g>
<circle cx= "940.677" cy="47.042" r="3"
fill = "red" stroke = "red"/>
</g>
<g>
<circle cx= "357.004" cy="841.613" r="3"
fill = "red" stroke = "red"/>
</g>
<g>
<circle cx= "4.499" cy="389.947" r="3"
fill = "red" stroke = "red"/>
</g>
<g>
<circle cx= "152.833" cy="341.014" r="3"
fill = "red" stroke = "red"/>
</g>
<g>
<circle cx= "570.904" cy="816.464" r="3"
fill = "red" stroke = "red"/>
</g>
<g>
<circle cx= "685.728" cy="973.607" r="3"
fill = "red" stroke = "red"/>
</g>
<g>
<circle cx= "582.323" cy="898.182" r="3"
fill = "red" stroke = "red"/>
</g>
<g>
<circle cx= "247.339" cy="973.503" r="3"
fill = "red" stroke = "red"/>
</g>
<g>
<circle cx= "327.901" cy="972.991" r="3"
fill = "red" stroke = "red"/>
</g>
<g>
<circle cx= "947.191" cy="565.380" r="3"
fill = "red" stroke = "red"/>
</g>
<g>
<circle cx= "666.999" cy="753.990" r="3"
fill = "red" stroke = "red"/>
</g>
<g>
<circle cx= "684.302" cy="936.659" r="3"
fill = "red" stroke = "red"/>
</g>
<g>
<circle cx= "578.764" cy="719.866" r="3"
fill = "red" stroke = "red"/>
</g>
<g>
<circle cx= "220.661" cy="347.865" r="3"
fill = "red" stroke = "red"/>
</g>
<g>
<circle cx= "427.630" cy="825.478" r="3"
fill = "red" stroke = "red"/>
</g>
<g>
<circle cx= "196.818" cy="76.144" r="3"
fill = "red" stroke = "red"/>
</g>
<g>
<circle cx= "243.956" cy="837.422" r="3"
fill = "red" stroke = "red"/>
</g>
<g>
<circle cx= "456.731" cy="717.173" r="3"
fill = "red" stroke = "red"/>
</g>
<g>
<circle cx= "480.727" cy="425.202" r="3"
fill = "red" stroke = "red"/>
</g>
<g>
<circle cx= "629.201" cy="22.261" r="3"
fill = "red" stroke = "red"/>
</g>
<g>
<circle cx= "851.652" cy="284.507" r="3"
fill = "red" stroke = "red"/>
</g>
<g>
<circle cx= "294.506" cy="244.748" r="3"
fill = "red" stroke = "red"/>
</g>
<g>
<circle cx= "516.205" cy="136.703" r="3"
fill = "red" stroke = "red"/>
</g>
<g>
<circle cx= "431.896" cy="118.373" r="3"
fill = "red" stroke = "red"/>
</g>
<g>
<circle cx= "507.006" cy="746.495" r="3"
fill = "red" stroke = "red"/>
</g>
<g>
<circle cx= "663.270" cy="413.045" r="3"
fill = "red" stroke = "red"/>
</g>
<g>
<circle cx= "947.911" cy="464.529" r="3"
fill = "red" stroke = "red"/>
</g>
<g>
<circle cx= "659.665" cy="6.604" r="3"
fill = "red" stroke = "red"/>
</g>
<g>
<circle cx= "6.877" cy="413.792" r="3"
fill = "red" stroke = "red"/>
</g>
<g>
<circle cx= "390.133" cy="27.881" r="3"
fill = "red" stroke = "red"/>
</g>
<g>
<circle cx= "406.753" cy="699.831" r="3"
fill = "red" stroke = "red"/>
</g>
<g>
<circle cx= "934.389" cy="719.338" r="3"
fill = "red" stroke = "red"/>
</g>
<g>
<circle cx= "92.320" cy="372.738" r="3"
fill = "red" stroke = "red"/>
</g>
<g>
<circle cx= "396.657" cy="381.935" r="3"
fill = "red" stroke = "red"/>
</g>
<g>
<circle cx= "826.459" cy="700.890" r="3"
fill = "red" stroke = "red"/>
</g>
<g>
<circle cx= "139.112" cy="948.968" r="3"
fill = "red" stroke = "red"/>
</g>
<g>
<circle cx= "690.531" cy="238.050" r="3"
fill = "red" stroke = "red"/>
</g>
<g>
<circle cx= "95.686" cy="802.481" r="3"
fill = "red" stroke = "red"/>
</g>
<g>
<circle cx= "706.940" cy="460.652" r="3"
fill = "red" stroke = "red"/>
</g>
<g>
<circle cx= "822.673" cy="333.350" r="3"
fill = "red" stroke = "red"/>
</g>
<g>
<circle cx= "390.320" cy="888.787" r="3"
fill = "red" stroke = "red"/>
</g>
<g>
<circle cx= "161.275" cy="449.942" r="3"
fill = "red" stroke = "red"/>
</g>
<g>
<circle cx= "833.103" cy="42.549" r="3"
fill = "red" stroke = "red"/>
</g>
<g>
<circle cx= "870.283" cy="153.531" r="3"
fill = "red" stroke = "red"/>
</g>
<g>
<circle cx= "603.675" cy="27.925" r="3"
fill = "red" stroke = "red"/>
</g>
<g>
<circle cx= "669.478" cy="85.626" r="3"
fill = "red" stroke = "red"/>
</g>
<g>
<circle cx= "890.617" cy="396.365" r="3"
fill = "red" stroke = "red"/>
</g>
<g>
<circle cx= "287.487" cy="203.927" r="3"
fill = "red" stroke = "red"/>
</g>
<g>
<circle cx= "605.631" cy="153.722" r="3"
fill = "red" stroke = "red"/>
</g>
<g>
<circle cx= "387.844" cy="510.459" r="3"
fill = "red" stroke = "red"/>
</g>
<g>
<circle cx= "709.404" cy="48.883" r="3"
fill = "red" stroke = "red"/>
</g>
<g>
<circle cx= "431.066" cy="69.150" r="3"
fill = "red" stroke = "red"/>
</g>
<g>
<circle cx= "795.818" cy="679.494" r="3"
fill = "red" stroke = "red"/>
</g>
<g>
<circle cx= "750.362" cy="660.586" r="3"
fill = "red" stroke = "red"/>
</g>
<g>
<circle cx= "534.709" cy="139.493" r="3"
fill = "red" stroke = "red"/>
</g>
<g>
<circle cx= "541.582" cy="625.382" r="3"
fill = "red" stroke = "red"/>
</g>
<g>
<circle cx= "205.611" cy="289.491" r="3"
fill = "red" stroke = "red"/>
</g>
<g>
<circle cx= "527.349" cy="841.113" r="3"
fill = "red" stroke = "red"/>
</g>
<g>
<circle cx= "409.714" cy="935.455" r="3"
fill = "red" stroke = "red"/>
</g>
<g>
<circle cx= "800.263" cy="986.684" r="3"
fill = "red" stroke = "red"/>
</g>
<g>
<circle cx= "805.962" cy="189.756" r="3"
fill = "red" stroke = "red"/>
</g>
<g>
<circle cx= "768.802" cy="743.415" r="3"
fill = "red" stroke = "red"/>
</g>
<g>
<circle cx= "429.632" cy="180.965" r="3"
fill = "red" stroke = "red"/>
</g>
<g>
<circle cx= "521.982" cy="47.141" r="3"
fill = "red" stroke = "red"/>
</g>
<g>
<circle cx= "701.977" cy="874.596" r="3"
fill = "red" stroke = "red"/>
</g>
<g>
<circle cx= "658.225" cy="216.045" r="3"
fill = "red" stroke = "red"/>
</g>
<g>
<circle cx= "930.672" cy="202.229" r="3"
fill = "red" stroke = "red"/>
</g>
<g>
<circle cx= "140.002" cy="980.411" r="3"
fill = "red" stroke = "red"/>
</g>
<g>
<circle cx= "233.378" cy="610.926" r="3"
fill = "red" stroke = "red"/>
</g>
<g>
<circle cx= "165.000" cy="839.551" r="3"
fill = "red" stroke = "red"/>
</g>
<g>
<circle cx= "667.527" cy="868.572" r="3"
fill = "red" stroke = "red"/>
</g>
<g>
<circle cx= "902.861" cy="613.475" r="3"
fill = "red" stroke = "red"/>
</g>
<g>
<circle cx= "329.239" cy="485.421" r="3"
fill = "red" stroke = "red"/>
</g>
<g>
<circle cx= "526.165" cy="748.274" r="3"
fill = "red" stroke = "red"/>
</g>
<g>
<circle cx= "760.255" cy="388.596" r="3"
fill = "red" stroke = "red"/>
</g>
<g>
<circle cx= "866.052" cy="264.533" r="3"
fill = "red" stroke = "red"/>
</g>
<g>
<circle cx= "0.659" cy="922.604" r="3"
fill = "red" stroke = "red"/>
</g>
<g>
<circle cx= "796.111" cy="760.597" r="3"
fill = "red" stroke = "red"/>
</g>
<g>
<circle cx= "644.824" cy="448.770" r="3"
fill = "red" stroke = "red"/>
</g>
<g>
<circle cx= "518.574" cy="332.478" r="3"
fill = "red" stroke = "red"/>
</g>
<g>
<circle cx= "47.067" cy="942.957" r="3"
fill = "red" stroke = "red"/>
</g>
<g>
<circle cx= "716.757" cy="460.533" r="3"
fill = "red" stroke = "red"/>
</g>
<g>
<circle cx= "816.527" cy="634.905" r="3"
fill = "red" stroke = "red"/>
</g>
<g>
<circle cx= "157.808" cy="722.528" r="3"
fill = "red" stroke = "red"/>
</g>
<g>
<circle cx= "475.445" cy="188.673" r="3"
fill = "red" stroke = "red"/>
</g>
<g>
<circle cx= "966.574" cy="788.415" r="3"
fill = "red" stroke = "red"/>
</g>
<g>
<circle cx= "101.930" cy="856.668" r="3"
fill = "red" stroke = "red"/>
</g>
</svg>
